<?xml version="1.0" encoding="utf-8"?>
<!-- Generator: Adobe Illustrator 27.9.6, SVG Export Plug-In . SVG Version: 9.03 Build 54986)  -->
<svg version="1.1" id="Capa_1" xmlns="http://www.w3.org/2000/svg" xmlns:xlink="http://www.w3.org/1999/xlink" x="0px" y="0px"
	 viewBox="0 0 700 700" style="enable-background:new 0 0 700 700;" xml:space="preserve">
<style type="text/css">
	.st0{fill:#F29022;}
	.st1{opacity:0.6;}
	.st2{fill:#FCDB59;}
	.st3{fill:#128456;}
	.st4{fill:#3AA8BD;}
	.st5{fill:#C82B3E;}
	.st6{fill:#432108;}
	.st7{fill:#61380E;}
	.st8{fill:#FFFFFF;}
	.st9{fill:#221707;}
</style>
<g class="st1">
	<g>
		<g>
			<g>
				<g>
					<path class="st8" d="M153.5,512.6c-3.4,0-6-1-7.9-2.9s-2.9-4.7-2.9-8.4v-14.5h3.6v14.4c0,2.8,0.6,4.9,1.9,6.2
						c1.3,1.3,3,2,5.3,2c2.3,0,4.1-0.7,5.3-2s1.9-3.4,1.9-6.2v-14.4h3.5v14.5c0,3.7-1,6.5-2.9,8.4S156.9,512.6,153.5,512.6z"/>
					<path class="st8" d="M172,512.3v-25.5h3l16.9,21h-1.6v-21h3.6v25.5h-3l-16.9-21h1.6v21H172z"/>
					<path class="st8" d="M219.2,512.3L208,486.8h3.9l10.3,23.6H220l10.4-23.6h3.6l-11.2,25.5H219.2z"/>
					<path class="st8" d="M237.4,512.3v-25.5h3.6v25.5H237.4z"/>
					<path class="st8" d="M245.1,512.3l11.6-25.5h3.6l11.6,25.5H268l-10.3-23.5h1.5l-10.3,23.5H245.1z M250,505.9l1-2.9h14.4
						l1.1,2.9H250z"/>
					<path class="st8" d="M279.7,512.6c-1.5,0-2.9-0.3-4.2-0.9c-1.3-0.6-2.4-1.5-3.2-2.7l2.1-2.5c0.7,1,1.5,1.7,2.4,2.2
						c0.9,0.5,1.9,0.8,2.9,0.8c2.9,0,4.4-1.7,4.4-5.2v-14.3h-9.2v-3.2h12.8v17.3c0,2.8-0.7,5-2,6.4S282.3,512.6,279.7,512.6z"/>
					<path class="st8" d="M295.3,512.3v-25.5h18v3.2h-14.4v19.2h14.9v3.2H295.3z M298.6,500.9v-3.1h13.1v3.1H298.6z"/>
					<path class="st8" d="M329.9,512.3v-25.5h3.6v25.5H329.9z"/>
					<path class="st8" d="M341.4,512.3v-25.5h3l16.9,21h-1.6v-21h3.6v25.5h-3l-16.9-21h1.6v21H341.4z"/>
					<path class="st8" d="M371.2,512.3v-25.5h3l11.5,19.3h-1.6l11.3-19.3h3l0,25.5h-3.5l0-20h0.8l-10.1,16.9H384l-10.1-16.9h0.9v20
						H371.2z"/>
					<path class="st8" d="M406.3,512.3v-25.5h18v3.2h-14.4v19.2h14.9v3.2H406.3z M409.6,500.9v-3.1h13.1v3.1H409.6z"/>
					<path class="st8" d="M430.9,512.3v-25.5h10c3.3,0,5.9,0.8,7.8,2.4s2.8,3.8,2.8,6.6c0,1.8-0.4,3.4-1.3,4.8s-2.1,2.3-3.6,3
						c-1.6,0.7-3.5,1.1-5.7,1.1h-8l1.6-1.7v9.5H430.9z M434.6,503.2l-1.6-1.8h7.8c2.3,0,4.1-0.5,5.3-1.5s1.8-2.4,1.8-4.3
						c0-1.8-0.6-3.2-1.8-4.2c-1.2-1-3-1.5-5.3-1.5h-7.8l1.6-1.8V503.2z M448,512.3l-6.5-9.3h3.9l6.6,9.3H448z"/>
					<path class="st8" d="M465.1,512.6c-1.9,0-3.8-0.3-5.6-0.9c-1.8-0.6-3.2-1.4-4.2-2.3l1.4-2.8c1,0.9,2.2,1.6,3.7,2.1
						c1.5,0.6,3.1,0.8,4.7,0.8c1.5,0,2.7-0.2,3.6-0.5c0.9-0.3,1.6-0.8,2-1.4c0.4-0.6,0.7-1.3,0.7-2c0-0.9-0.3-1.6-0.9-2.1
						c-0.6-0.5-1.3-1-2.2-1.3c-0.9-0.3-1.9-0.6-3-0.9s-2.2-0.5-3.3-0.9c-1.1-0.3-2.1-0.7-3-1.3c-0.9-0.5-1.6-1.2-2.2-2.1
						c-0.6-0.9-0.8-2-0.8-3.3c0-1.3,0.3-2.5,1-3.6s1.8-2,3.2-2.7s3.3-1,5.5-1c1.5,0,3,0.2,4.4,0.6c1.5,0.4,2.7,0.9,3.8,1.7l-1.2,2.9
						c-1.1-0.7-2.3-1.3-3.5-1.6s-2.4-0.5-3.5-0.5c-1.4,0-2.6,0.2-3.5,0.5s-1.6,0.9-2,1.5c-0.4,0.6-0.6,1.3-0.6,2
						c0,0.9,0.3,1.6,0.9,2.2s1.3,1,2.2,1.3s1.9,0.6,3,0.9s2.2,0.5,3.3,0.9c1.1,0.3,2.1,0.7,3,1.2s1.6,1.2,2.2,2s0.8,1.9,0.8,3.3
						c0,1.3-0.4,2.5-1.1,3.6c-0.7,1.1-1.8,2-3.3,2.7C469.2,512.3,467.3,512.6,465.1,512.6z"/>
					<path class="st8" d="M480.5,512.3v-25.5h3.6v25.5H480.5z"/>
					<path class="st8" d="M498.8,512.3l-11.2-25.5h3.9l10.3,23.6h-2.3l10.4-23.6h3.6l-11.2,25.5H498.8z"/>
					<path class="st8" d="M528.4,512.6c-1.9,0-3.8-0.3-5.4-1c-1.7-0.7-3.1-1.6-4.3-2.8c-1.2-1.2-2.2-2.6-2.8-4.1
						c-0.7-1.6-1-3.3-1-5.2c0-1.9,0.3-3.6,1-5.2c0.7-1.6,1.6-3,2.8-4.1c1.2-1.2,2.7-2.1,4.3-2.8s3.5-1,5.4-1c1.9,0,3.7,0.3,5.4,1
						c1.7,0.6,3.1,1.6,4.3,2.7c1.2,1.2,2.2,2.6,2.8,4.2c0.7,1.6,1,3.3,1,5.2c0,1.9-0.3,3.6-1,5.2c-0.7,1.6-1.6,3-2.8,4.1
						c-1.2,1.2-2.7,2.1-4.3,2.7C532.1,512.3,530.3,512.6,528.4,512.6z M528.4,509.3c1.4,0,2.8-0.2,4-0.7s2.2-1.2,3.1-2.1
						c0.9-0.9,1.6-1.9,2.1-3.1s0.7-2.5,0.7-3.9s-0.2-2.7-0.7-3.9c-0.5-1.2-1.2-2.2-2.1-3.1c-0.9-0.9-1.9-1.6-3.1-2.1
						c-1.2-0.5-2.5-0.7-4-0.7c-1.4,0-2.7,0.2-3.9,0.7c-1.2,0.5-2.3,1.2-3.2,2.1c-0.9,0.9-1.6,1.9-2.1,3.1c-0.5,1.2-0.7,2.5-0.7,3.9
						s0.2,2.7,0.7,3.9s1.2,2.2,2.1,3.1c0.9,0.9,2,1.6,3.2,2.1C525.6,509.1,526.9,509.3,528.4,509.3z"/>
					<path class="st8" d="M145.5,544.6l8.5-18.8h2.7l8.6,18.8h-2.8l-7.6-17.3h1.1l-7.6,17.3H145.5z M149.1,539.9l0.7-2.2h10.6
						l0.8,2.2H149.1z"/>
					<path class="st8" d="M175,544.6v-18.8h2.7v16.5h10.2v2.3H175z"/>
					<path class="st8" d="M187.9,544.6l8.5-18.8h2.7l8.6,18.8h-2.8l-7.6-17.3h1.1l-7.6,17.3H187.9z M191.5,539.9l0.7-2.2h10.6
						l0.8,2.2H191.5z"/>
					<path class="st8" d="M217.4,544.6v-18.8h2.7v18.8H217.4z M219.8,536.2v-2.3h11.3v2.3H219.8z M230.9,544.6v-18.8h2.7v18.8H230.9
						z"/>
					<path class="st8" d="M239,544.6v-18.8h2.7v18.8H239z"/>
					<path class="st8" d="M252.7,544.8c-1.4,0-2.8-0.2-4.1-0.7c-1.3-0.4-2.3-1-3.1-1.7l1-2.1c0.7,0.6,1.6,1.1,2.7,1.6
						c1.1,0.4,2.3,0.6,3.5,0.6c1.1,0,2-0.1,2.7-0.4s1.2-0.6,1.5-1c0.3-0.4,0.5-0.9,0.5-1.5c0-0.6-0.2-1.2-0.6-1.6
						c-0.4-0.4-1-0.7-1.6-1c-0.7-0.2-1.4-0.5-2.2-0.6c-0.8-0.2-1.6-0.4-2.4-0.6c-0.8-0.2-1.6-0.6-2.2-0.9c-0.7-0.4-1.2-0.9-1.6-1.5
						c-0.4-0.6-0.6-1.5-0.6-2.5c0-1,0.3-1.9,0.8-2.7c0.5-0.8,1.3-1.5,2.4-2s2.4-0.7,4.1-0.7c1.1,0,2.2,0.1,3.3,0.4
						c1.1,0.3,2,0.7,2.8,1.2l-0.9,2.2c-0.8-0.5-1.7-0.9-2.6-1.2s-1.8-0.4-2.6-0.4c-1.1,0-1.9,0.1-2.6,0.4c-0.7,0.3-1.2,0.6-1.5,1.1
						c-0.3,0.4-0.5,1-0.5,1.5c0,0.7,0.2,1.2,0.6,1.6c0.4,0.4,1,0.7,1.6,0.9c0.7,0.2,1.4,0.4,2.2,0.6c0.8,0.2,1.6,0.4,2.4,0.6
						c0.8,0.2,1.6,0.5,2.2,0.9c0.7,0.4,1.2,0.9,1.6,1.5s0.6,1.4,0.6,2.4c0,1-0.3,1.8-0.8,2.6c-0.5,0.8-1.3,1.5-2.4,2
						S254.3,544.8,252.7,544.8z"/>
					<path class="st8" d="M267.2,544.6v-16.5h-6.5v-2.3h15.6v2.3h-6.5v16.5H267.2z"/>
					<path class="st8" d="M287.3,544.8c-1.4,0-2.8-0.2-4-0.7c-1.2-0.5-2.3-1.2-3.2-2c-0.9-0.9-1.6-1.9-2.1-3.1
						c-0.5-1.2-0.8-2.4-0.8-3.8s0.3-2.7,0.8-3.8c0.5-1.2,1.2-2.2,2.1-3.1c0.9-0.9,2-1.5,3.2-2c1.2-0.5,2.6-0.7,4-0.7
						c1.4,0,2.8,0.2,4,0.7c1.2,0.5,2.3,1.1,3.2,2c0.9,0.9,1.6,1.9,2.1,3.1s0.7,2.5,0.7,3.8c0,1.4-0.2,2.7-0.7,3.8
						c-0.5,1.2-1.2,2.2-2.1,3.1c-0.9,0.9-2,1.5-3.2,2C290.1,544.5,288.8,544.8,287.3,544.8z M287.3,542.4c1.1,0,2-0.2,2.9-0.5
						c0.9-0.4,1.7-0.9,2.3-1.5c0.7-0.7,1.2-1.4,1.5-2.3c0.4-0.9,0.6-1.8,0.6-2.9s-0.2-2-0.6-2.9c-0.4-0.9-0.9-1.6-1.5-2.3
						c-0.7-0.7-1.4-1.2-2.3-1.5c-0.9-0.4-1.9-0.5-2.9-0.5c-1,0-2,0.2-2.9,0.5c-0.9,0.4-1.7,0.9-2.3,1.5s-1.2,1.4-1.5,2.3
						c-0.4,0.9-0.6,1.8-0.6,2.9s0.2,2,0.6,2.9c0.4,0.9,0.9,1.6,1.5,2.3s1.4,1.2,2.3,1.5C285.3,542.2,286.3,542.4,287.3,542.4z"/>
					<path class="st8" d="M301.3,544.6v-18.8h7.3c2.4,0,4.4,0.6,5.8,1.7s2.1,2.8,2.1,4.8c0,1.4-0.3,2.5-0.9,3.5
						c-0.6,1-1.5,1.7-2.7,2.2s-2.6,0.8-4.2,0.8h-5.9l1.2-1.2v7H301.3z M304,537.9l-1.2-1.3h5.8c1.7,0,3-0.4,3.9-1.1s1.3-1.8,1.3-3.1
						s-0.4-2.4-1.3-3.1c-0.9-0.7-2.2-1.1-3.9-1.1h-5.8l1.2-1.3V537.9z M313.9,544.6l-4.8-6.8h2.9l4.8,6.8H313.9z"/>
					<path class="st8" d="M320.7,544.6v-18.8h2.7v18.8H320.7z"/>
					<path class="st8" d="M326,544.6l8.5-18.8h2.7l8.6,18.8h-2.8l-7.6-17.3h1.1l-7.6,17.3H326z M329.6,539.9l0.7-2.2h10.6l0.8,2.2
						H329.6z"/>
					<path class="st8" d="M355.4,544.6v-18.8h7.9c2,0,3.8,0.4,5.3,1.2c1.5,0.8,2.7,1.9,3.6,3.3c0.9,1.4,1.3,3.1,1.3,4.9
						s-0.4,3.5-1.3,4.9s-2,2.5-3.6,3.3c-1.5,0.8-3.3,1.2-5.3,1.2H355.4z M358.1,542.2h5.1c1.6,0,2.9-0.3,4-0.9s2-1.4,2.6-2.5
						c0.6-1.1,0.9-2.3,0.9-3.7c0-1.4-0.3-2.7-0.9-3.7c-0.6-1.1-1.5-1.9-2.6-2.5s-2.5-0.9-4-0.9h-5.1V542.2z"/>
					<path class="st8" d="M377.5,544.6v-18.8h13.3v2.3h-10.6v14.1h11v2.3H377.5z M379.9,536.2v-2.3h9.7v2.3H379.9z"/>
					<path class="st8" d="M402.4,544.6v-18.8h2.2l8.4,14.2h-1.2l8.3-14.2h2.2l0,18.8h-2.6l0-14.8h0.6l-7.4,12.5h-1.2l-7.5-12.5h0.7
						v14.8H402.4z"/>
					<path class="st8" d="M427.9,544.6v-18.8h13.3v2.3h-10.6v14.1h11v2.3H427.9z M430.4,536.2v-2.3h9.7v2.3H430.4z"/>
					<path class="st8" d="M445.8,544.6v-18.8h7.9c2,0,3.8,0.4,5.3,1.2c1.5,0.8,2.7,1.9,3.6,3.3c0.9,1.4,1.3,3.1,1.3,4.9
						s-0.4,3.5-1.3,4.9s-2,2.5-3.6,3.3c-1.5,0.8-3.3,1.2-5.3,1.2H445.8z M448.5,542.2h5.1c1.6,0,2.9-0.3,4-0.9s2-1.4,2.6-2.5
						c0.6-1.1,0.9-2.3,0.9-3.7c0-1.4-0.3-2.7-0.9-3.7c-0.6-1.1-1.5-1.9-2.6-2.5s-2.5-0.9-4-0.9h-5.1V542.2z"/>
					<path class="st8" d="M467.8,544.6v-18.8h13.3v2.3h-10.6v14.1h11v2.3H467.8z M470.3,536.2v-2.3h9.7v2.3H470.3z"/>
					<path class="st8" d="M485.7,544.6v-18.8h2.7v16.5h10.2v2.3H485.7z"/>
					<path class="st8" d="M501.5,544.6v-18.8h2.7v16.5h10.2v2.3H501.5z"/>
					<path class="st8" d="M516.6,524.2l3.7-3.5h3.3l-4.5,3.5H516.6z M517.3,544.6v-18.8h2.7v18.8H517.3z"/>
					<path class="st8" d="M525.5,544.6v-18.8h2.2l12.5,15.5H539v-15.5h2.7v18.8h-2.2L527,529.1h1.2v15.5H525.5z"/>
				</g>
			</g>
		</g>
	</g>
</g>
<g>
	<g>
		<g>
			<g>
				<g>
					<path class="st8" d="M524.8,408.2v-5h5.4c4.6,0,8-1.2,10.1-3.7c2.1-2.5,3.2-6,3.2-10.5v-50.2c0-2.5,0.3-4.6,0.9-6.2
						c0.6-1.6,1.4-2.9,2.6-3.8c1.2-0.9,2.6-1.6,4.3-2.1v1c-1.7-0.6-3.2-1.3-4.3-2.2c-1.2-0.9-2-2.1-2.6-3.7
						c-0.6-1.6-0.9-3.7-0.9-6.2v-50.2c0-4.5-1.1-8-3.2-10.5c-2.1-2.5-5.5-3.7-10.1-3.7h-5.4v-5h4.8c6.5,0,11.3,1.5,14.6,4.6
						c3.3,3.1,4.9,7.9,4.9,14.4v50.3c0,3.2,0.7,5.5,2,6.9c1.3,1.4,3.3,2.1,5.8,2.1h6.1v5H557c-2.5,0-4.5,0.7-5.8,2.2
						c-1.3,1.4-2,3.8-2,7v50.3c0,6.5-1.6,11.2-4.9,14.4c-3.3,3.1-8.2,4.7-14.6,4.7H524.8z"/>
				</g>
				<g>
					<path class="st8" d="M155.1,408.2c-6.5,0-11.3-1.6-14.6-4.7c-3.3-3.1-4.9-7.9-4.9-14.4v-50.3c0-3.2-0.7-5.6-2.1-7
						c-1.4-1.4-3.3-2.2-5.7-2.2h-6.1v-5h6.1c2.4,0,4.3-0.7,5.7-2.1s2.1-3.7,2.1-6.9v-50.3c0-6.6,1.6-11.4,4.9-14.4
						c3.3-3.1,8.2-4.6,14.6-4.6h4.8v5h-5.4c-4.6,0-8,1.2-10.1,3.7c-2.1,2.5-3.2,6-3.2,10.5v50.2c0,2.5-0.3,4.6-0.9,6.2
						c-0.6,1.6-1.4,2.9-2.5,3.7c-1.1,0.9-2.6,1.6-4.4,2.2v-1c1.8,0.5,3.3,1.2,4.4,2.1c1.1,0.9,1.9,2.2,2.5,3.8
						c0.6,1.6,0.9,3.7,0.9,6.2V389c0,4.5,1.1,8,3.2,10.5c2.1,2.5,5.5,3.7,10.1,3.7h5.4v5H155.1z"/>
				</g>
			</g>
			<g class="st1">
				<path class="st8" d="M250.1,228.2c0,5.6-4.5,10.1-10,10.1c-5.6,0-9.9-4.5-9.9-9.9c0-3.3,1.4-6.1,3.7-8c-0.9-0.1-1.9-0.2-2.9-0.2
					c-12.6,0-19.5,10.5-19.5,24.8c0,13.8,6.6,24.1,19.6,24.1c9,0,15.9-4.9,19.2-12.2h1.8c-4.5,13.1-13.1,20.9-26.4,20.9
					c-16.8,0-28.1-12.4-28.1-30.9c0-19.4,12.5-31.9,31.7-31.9C242.5,215,250.1,220.8,250.1,228.2z"/>
				<path class="st8" d="M277,232.4c13.6,0,22.4,9,22.4,22.4c0,13.6-9.1,23-22.8,23c-13.4,0-22.6-9.2-22.6-22.6
					C254,241.5,263.3,232.4,277,232.4z M276.6,272.6c5.3,0,8.8-7,8.8-17.4c0-10.6-3.5-17.4-8.8-17.4c-5.1,0-8.7,7-8.7,17.6
					C268,265.7,271.4,272.6,276.6,272.6z"/>
				<path class="st8" d="M304.1,244.8c0-7.6,7.1-12.4,17.8-12.4c11,0,16.6,5.1,16.6,10.1c0,3.5-2.6,6.1-5.9,6.1c-3.4,0-6-2.6-6-5.9
					c0-1.9,0.8-3.6,2.2-4.6c-0.7-0.8-2.9-1.5-5.4-1.5c-3.9,0-6.1,2-6.1,4.5c0,7.8,21.8,10,21.8,24.2c0,7.9-6.8,12.6-18.3,12.6
					c-12.1,0-18.9-5.2-18.9-10.9c0-3.9,2.9-6.9,6.7-6.9c3.6,0,6.7,3,6.7,6.7c0,2.1-1,3.9-2.4,5.1c0.8,0.6,2.4,1.3,5.6,1.3
					c5.1,0,7.3-1.9,7.3-4.6C325.8,260.4,304.1,257.7,304.1,244.8z"/>
				<path class="st8" d="M363.2,275.2v1.8h-21v-1.8l0.8-0.6c1.7-1.3,2.8-3.4,2.8-5.4v-25.5c0-2-1.1-4.2-2.8-5.4l-0.8-0.6v-1.8
					l14-2.6h3.5v35.9c0,2,1.2,4.1,2.7,5.4L363.2,275.2z M352.7,215c4.5,0,8.1,3.7,8.1,8.1s-3.6,8-8.1,8c-4.4,0-8-3.6-8-8
					S348.3,215,352.7,215z"/>
				<path class="st8" d="M405.2,248.8v21c0,2.2,0.7,3,2.4,3c0,0,1.3,0,1.9-1.2c0,2.1-3,6.1-9.3,6.1c-4.5,0-7.7-2.1-8.7-6.4
					c-2.8,4.2-7.3,6.4-12.4,6.4c-7.7,0-13.7-5.1-13.7-12.6c0-15.5,24.7-13.8,25.3-20.8c-1.7-5.6-6.1-7.4-9.1-7.4
					c-1.2,0-2,0.3-2.4,0.6c1.4,1.2,2.4,3,2.4,5.1c0,3.5-2.9,6.5-6.7,6.5c-3.7,0-6.7-2.9-6.7-6.8c0-5.8,6.3-9.9,16.9-9.9
					C394.6,232.4,405.2,235.7,405.2,248.8z M391.3,250.6c-4.2,3-11.9,4.5-11.9,11.7c0,4.2,2.6,6.8,5.3,6.8c3,0,6.1-3.3,6.6-8.3
					V250.6z"/>
				<path class="st8" d="M451.5,243.9c0,4.5-3.4,7.7-7.6,7.7c-4.3,0-7.7-3.3-7.7-7.5c0-2.4,1.1-4.5,2.8-5.9
					c-0.4-0.2-1.6-0.6-3.2-0.6c-6,0-11,6.4-11,15.7c0,9.3,5,15.7,12.7,15.7c8.1,0,13.1-6.7,13.9-9.6h1.8
					c-2.3,9.3-7.8,18.3-20.1,18.3c-11.5,0-22.2-8-22.2-22c0-13.1,9.4-23.4,23.5-23.4C444.1,232.4,451.5,237.5,451.5,243.9z"/>
				<path class="st8" d="M495.2,248.8v21c0,2.2,0.7,3,2.4,3c0,0,1.3,0,1.9-1.2c0,2.1-3,6.1-9.3,6.1c-4.5,0-7.7-2.1-8.7-6.4
					c-2.8,4.2-7.3,6.4-12.4,6.4c-7.7,0-13.7-5.1-13.7-12.6c0-15.5,24.7-13.8,25.3-20.8c-1.7-5.6-6.1-7.4-9.1-7.4
					c-1.2,0-2,0.3-2.4,0.6c1.4,1.2,2.4,3,2.4,5.1c0,3.5-2.9,6.5-6.7,6.5c-3.7,0-6.7-2.9-6.7-6.8c0-5.8,6.3-9.9,16.9-9.9
					C484.6,232.4,495.2,235.7,495.2,248.8z M481.2,250.6c-4.2,3-11.9,4.5-11.9,11.7c0,4.2,2.6,6.8,5.3,6.8c3,0,6.1-3.3,6.6-8.3
					V250.6z"/>
			</g>
			<g>
				<path class="st8" d="M230.7,368.5c13.6,0,22.5-9.1,22.5-25.4c0-12.7-5.3-22-17.3-22c-0.3,0-4.4,0-7.6,2.2
					c4.6,3.7,6.1,9.5,6.1,14.1c0,10.8-7.5,18.5-18,18.5c-10.3,0-17.5-7.3-17.5-17.6c0-15.8,16.3-27.6,39.3-27.6
					c19.8,0,42.9,8.8,42.9,32.4c0,14.4-8.5,24.6-20.2,29.1c17.1,5.3,25.4,15.8,25.4,29.6c0,24.6-27.1,35.4-47.6,35.4
					c-17.1,0-41.5-7.5-41.5-27.3c0-10.8,7.1-18,17.5-18c10.5,0,17.8,7.6,17.8,18.5c0,4.6-1.4,10.3-5.9,14.1c2.5,1.5,6.6,2,10.2,2
					c14.4,0,21.7-9.1,21.7-21.2c0-17.3-14.2-26.3-27.8-26.3V368.5z"/>
				<path class="st8" d="M353.1,312.5c4.1,0,9-1.9,12.2-4.2l3.4-2.9h3.6l-5.3,35.1h-56.2v24.7c7.1-5.1,16.9-7.8,26.9-7.8
					c21.3,0,43.7,12.4,43.7,40.7c0,25.9-18.8,39-44.9,39c-24.1,0-41.7-11-41.7-27.4c0-10.5,7.1-17.6,17.5-17.6
					c10.5,0,17.8,7.6,17.8,18.3c0,4.7-1.4,10.5-5.9,14.2c1.7,0.8,3.7,2,8.5,2c10.7,0,20.2-6.8,20.2-26.8c0-19.5-9.1-29.6-23.2-29.6
					c-6.1,0-13,1.9-20.5,5.8l-8.8-6.1v-57.3H353.1z"/>
				<path class="st8" d="M445.7,310.6c31.9,0,52.9,25.6,52.9,63.2c0,37.9-21.2,63.2-53.2,63.2c-32,0-53.9-25.8-53.9-63
					C391.5,335.8,414.1,310.6,445.7,310.6z M444.4,426.5c15.1,0,26.1-21.2,26.1-53.2c0-30.5-10-52.2-25.2-52.2
					c-15.2,0-25.6,21.7-25.6,53.4C419.7,405.6,429.5,426.5,444.4,426.5z"/>
			</g>
		</g>
	</g>
</g>
</svg>
